<svg width="23" height="24" viewBox="0 0 23 24" fill="none"
  xmlns="http://www.w3.org/2000/svg">
  <path d="M21.9097 16.1641C21.086 12.5804 18.8385 10.123 15.3202 8.74635C15.0614 8.64396 15.0143 8.54157 15.0967 8.29127C15.332 7.62003 15.3438 6.92604 15.1673 6.24342C14.7201 4.55963 13.3081 3.46744 11.3195 3.29679C10.9194 3.26266 10.8606 3.22852 10.9665 2.84171C11.0606 2.48902 11.1783 2.13634 11.3077 1.78365C11.3783 1.613 11.3548 1.49923 11.1783 1.41959C10.99 1.32857 10.79 1.22618 10.6253 1.10103C10.3782 0.919001 10.237 0.99864 10.084 1.2148C9.78983 1.64713 9.46035 2.0567 9.17795 2.43214C8.77788 2.27286 8.43664 2.0567 8.07187 1.99981C7.51883 1.94293 6.95402 1.93155 6.38921 1.94293C5.56553 1.94293 4.85952 2.54591 4.75362 3.34229C4.68302 3.85426 4.65949 4.3776 4.63595 4.90094C4.61242 5.76559 5.2949 6.49371 6.17741 6.58473C6.41274 6.60748 6.64808 6.64161 6.88342 6.63024C7.15406 6.61886 7.23642 6.72125 7.25996 6.9943C7.30702 7.51764 7.40116 8.04098 7.53059 8.55294C7.58943 8.78048 7.55413 8.8715 7.34232 8.96251C6.08327 9.50861 4.98896 10.2822 4.03584 11.2379C2.15315 13.1265 1.20004 15.4019 1.05883 18.0072C1 19.1676 1.01177 20.3281 1 21.4999C1 21.5909 1.01177 21.682 1.01177 21.8299C1.43537 21.4089 1.81191 21.0221 2.22375 20.6011C2.30612 20.8173 2.34142 20.9538 2.40025 21.079C2.65912 21.6478 2.91799 22.2167 3.18863 22.7855C3.22393 22.8652 3.3063 22.9903 3.3769 22.9903C3.83581 23.0131 4.29471 23.0017 4.76539 23.0017C4.75362 22.9448 4.75362 22.922 4.74185 22.9107C4.69479 22.831 4.63595 22.7514 4.58889 22.6718C3.98878 21.7843 3.57694 20.8173 3.32983 19.782C3.28277 19.5886 3.32983 19.4634 3.45927 19.3269C3.95348 18.8263 4.44768 18.3258 4.94189 17.8252C4.98896 17.7683 5.05956 17.7342 5.10663 17.6886C5.13016 17.7 5.14193 17.7114 5.16546 17.7228C4.88306 18.5874 4.60065 19.4521 4.31825 20.3281C4.34178 20.3395 4.35355 20.3395 4.37708 20.3509C4.87129 20.0095 5.3655 19.6682 5.84794 19.3155C8.46017 17.4497 11.3783 16.9719 14.5201 17.4839C15.3908 17.6318 16.2498 17.9048 17.1323 18.03C18.4502 18.212 19.6151 17.8593 20.4859 16.8126C20.5329 16.7557 20.5918 16.6988 20.7094 16.5737C21.0272 18.8718 20.6977 20.988 19.6034 22.9903C19.6975 23.0131 19.7446 23.0244 19.7799 23.0244C20.1093 23.0244 20.427 23.0244 20.7448 23.0244C20.9448 23.0358 21.0507 22.9448 21.1213 22.7855C22.0744 20.6467 22.4392 18.4281 21.9097 16.1641ZM8.69551 6.07277C8.90731 5.29913 9.28385 4.59376 9.80159 3.84288C9.84866 3.9339 9.87219 4.00216 9.90749 4.05904C10.1664 4.3776 10.4958 4.54825 10.9194 4.54825C11.5431 4.55963 12.1432 4.69615 12.6962 5.00333C14.1083 5.76559 14.4142 7.71105 13.3316 8.86012C13.061 9.14455 13.0375 9.15592 12.7786 8.84874C12.4844 8.49606 12.1667 8.21163 11.6608 8.20026C10.9547 8.1775 10.437 8.51881 10.2252 9.17868C10.2017 9.24694 10.1781 9.3152 10.1311 9.44035C9.31915 9.06491 8.82495 8.49606 8.63668 7.68829C8.49547 7.13082 8.55431 6.59611 8.69551 6.07277ZM12.7433 11.4654C12.6962 11.4313 12.5668 11.5223 12.4727 11.5678C12.4021 11.6133 12.3432 11.6816 12.2609 11.7271C12.0961 11.8409 11.9549 11.8068 11.8255 11.6589C11.7078 11.511 11.6843 11.3631 11.849 11.2379C11.8961 11.1924 11.9432 11.1469 12.002 11.1128C12.2491 10.9762 12.2491 10.817 12.0608 10.6236C11.8137 10.3619 11.5902 10.0888 11.3666 9.81579C11.2371 9.63375 11.1548 9.44035 11.3548 9.28107C11.5666 9.11041 11.7431 9.24694 11.8726 9.40621C12.7668 10.4643 13.6493 11.5223 14.5319 12.5804C14.6731 12.751 14.7672 12.9331 14.5554 13.1037C14.3554 13.2516 14.1789 13.1606 14.0612 12.99C13.92 12.7965 13.7788 12.8079 13.6023 12.9558C13.3905 13.1379 13.1669 13.2971 12.9433 13.4792C12.7668 13.6157 12.6139 13.5929 12.4609 13.4337C11.8726 12.8193 11.8726 12.7966 12.555 12.2618C12.6727 12.1708 12.8021 12.0684 12.9198 11.9774C12.9669 11.9319 13.0022 11.8864 13.061 11.8181C12.9551 11.6816 12.861 11.5451 12.7433 11.4654ZM7.27172 5.4129C6.96579 5.39015 6.67161 5.37877 6.36568 5.34464C6.08327 5.31051 5.91854 5.1171 5.9303 4.83268C5.94207 4.49137 5.9656 4.15006 6.00091 3.80875C6.05974 3.2399 6.17741 3.14889 6.67162 3.16026C7.09522 3.18302 7.42469 3.19439 7.75416 3.22852C8.21307 3.26266 8.38957 3.56983 8.18954 3.95665C7.9895 4.36622 7.78946 4.77579 7.60119 5.19674C7.53059 5.36739 7.43646 5.42428 7.27172 5.4129ZM17.7795 16.824C17.3441 16.8354 16.897 16.733 16.4852 16.6306C15.0025 16.2551 13.4964 16.0162 11.9549 16.0504C10.284 16.0845 8.69551 16.4486 7.17759 17.1198C7.04815 17.1767 6.91872 17.2336 6.77752 17.2791C6.75398 17.2677 6.73045 17.2449 6.70692 17.2336C7.18936 15.7659 7.6718 14.3097 8.14247 12.8421C8.11894 12.8307 8.0954 12.8079 8.07187 12.7965C6.20094 14.7193 4.31825 16.642 2.44732 18.5647C2.42379 18.5533 2.40025 18.5419 2.36495 18.5419C2.35319 18.4509 2.34142 18.3713 2.34142 18.2802C2.47085 16.1414 3.10626 14.1845 4.58889 12.5463C5.60083 11.4313 6.78928 10.5553 8.21307 9.98644C8.37781 9.91818 8.49547 9.91818 8.63668 10.0319C9.17795 10.4643 9.78983 10.7487 10.4723 10.8852C10.6841 10.9307 10.7429 11.0104 10.7076 11.2152C10.6488 11.5565 10.7076 11.8864 10.9194 12.1936C10.99 12.2846 11.0018 12.4439 10.9783 12.5576C10.9194 12.9672 11.0136 13.3313 11.2842 13.6498C11.4137 13.8091 11.5431 13.957 11.6725 14.1049C12.1903 14.6851 12.9198 14.7648 13.5552 14.2983C13.7082 14.1845 13.8494 14.1163 14.0612 14.1618C14.6378 14.2983 15.2026 14.0594 15.5203 13.5929C15.838 13.1265 15.8262 12.5007 15.4614 12.0457C15.0143 11.4882 14.5319 10.9421 14.073 10.3846C13.9906 10.2822 13.8023 10.1912 13.9671 10.0319C14.1083 9.88405 14.2377 9.71339 14.5083 9.80441C15.5909 10.1798 16.6028 10.6804 17.4618 11.4199C18.0266 11.9091 18.5444 12.4552 19.0386 13.0241C19.3092 13.3426 19.5092 13.7295 19.6622 14.1163C20.2035 15.5384 19.3445 16.7785 17.7795 16.824Z" fill="#B3D4CE" stroke="#B3D4CE" stroke-width="0.5"/>
  <path d="M10.0249 20.6468C10.0249 21.1247 9.64837 21.4887 9.14239 21.4774C8.67172 21.466 8.28342 21.0905 8.29518 20.6355C8.29518 20.169 8.70702 19.7936 9.18946 19.8049C9.6719 19.8163 10.0249 20.169 10.0249 20.6468Z" fill="#B3D4CE" stroke="#B3D4CE" stroke-width="0.5"/>
  <path d="M15.6849 20.6466C15.6849 21.1244 15.3083 21.4885 14.8023 21.4771C14.3434 21.4657 13.9434 21.0903 13.9434 20.6352C13.9434 20.1801 14.3552 19.8047 14.8376 19.8047C15.3201 19.8161 15.6849 20.1801 15.6849 20.6466Z" fill="#B3D4CE" stroke="#B3D4CE" stroke-width="0.5"/>
  <path d="M7.07165 4.65034C7.04744 4.64867 7.02248 4.64823 6.99757 4.64778C6.85296 4.64522 6.71034 4.64268 6.73041 4.40005C6.73667 4.32345 6.74255 4.25936 6.75003 4.20574L7.08595 4.22153L7.07905 4.42852L7.07903 4.42889L7.07165 4.65034ZM7.07165 4.65034C7.10117 4.65133 7.12857 4.65171 7.15402 4.65137C7.3467 4.6488 7.42744 4.60447 7.46564 4.46088C7.46571 4.46062 7.46578 4.46036 7.46585 4.4601C7.4808 4.40351 7.4892 4.33157 7.49525 4.24077M7.07165 4.65034L7.0869 4.42955L7.08693 4.42916L7.10122 4.22225L7.15402 4.22473L7.49525 4.24077M7.49525 4.24077C7.50702 3.99048 7.36582 3.93359 7.15402 3.93359C7.14274 3.93359 7.13178 3.93363 7.12114 3.9337L7.10175 4.21451L7.15402 4.218L7.49525 4.24077ZM7.08622 4.21348L6.75214 4.19119C6.78512 3.97224 6.84991 3.93774 7.09553 3.93398L7.08622 4.21348Z" fill="#B3D4CE" stroke="#B3D4CE" stroke-width="10"/>
</svg>
